<svg xmlns="http://www.w3.org/2000/svg" width="768" height="767.2130055001434" viewBox="0 0 711.7068481445312 710.9775390625" version="1.1">
<g transform="translate(-644.2538452148438,-644.25732421875)"><path d="M 957.500 664.997 C 954.200 665.454, 949.148 666.756, 946.273 667.890 C 940.035 670.352, 925.935 673.274, 909.578 675.497 C 896.569 677.265, 893.291 678.327, 886.552 682.964 C 884.093 684.656, 879.251 686.930, 875.791 688.017 C 869.582 689.969, 865.936 691.893, 858.359 697.221 C 855.987 698.889, 850.098 701.094, 843.147 702.918 C 832.538 705.701, 831.461 706.219, 826.463 710.947 C 823.524 713.726, 820.700 716, 820.186 716 C 819.672 716, 816.574 718.390, 813.301 721.311 C 810.027 724.232, 805.583 727.683, 803.424 728.981 C 801.266 730.279, 796.575 733.662, 793 736.500 C 789.425 739.338, 784.700 742.711, 782.500 743.996 C 780.300 745.281, 769.335 755.483, 758.134 766.666 C 746.933 777.850, 737.439 787, 737.037 787 C 736.635 787, 734.408 790.526, 732.088 794.836 C 729.769 799.145, 725.871 805.108, 723.426 808.086 C 720.981 811.064, 718.236 815.525, 717.327 818 C 716.418 820.475, 713.848 824.975, 711.615 828 C 709.382 831.025, 705.604 837.325, 703.218 841.999 C 700.833 846.674, 698.064 851.399, 697.065 852.499 C 693.942 855.942, 692.880 858.878, 690.473 870.734 C 688.731 879.316, 687.357 883.423, 685.075 886.873 C 679.493 895.310, 678.200 899.342, 675.085 918.031 C 673.387 928.223, 670.659 942.040, 669.025 948.735 C 663.434 971.628, 663.419 972.051, 665.615 1041.500 L 666.247 1061.500 669.012 1064.500 C 673.038 1068.869, 674.706 1072.737, 675.482 1079.501 C 676.602 1089.260, 679.663 1101.161, 683.357 1110.116 C 686.592 1117.961, 689.484 1126.874, 691.977 1136.678 C 692.561 1138.977, 694.671 1142.802, 696.667 1145.178 C 698.663 1147.555, 702.011 1153.217, 704.107 1157.760 C 706.203 1162.303, 709.263 1167.975, 710.908 1170.366 C 712.552 1172.756, 714.976 1177.149, 716.293 1180.128 C 718.717 1185.610, 724.484 1192.642, 742.341 1211.892 C 747.753 1217.726, 754.480 1226.009, 757.288 1230.298 C 761.390 1236.561, 763.586 1238.817, 768.447 1241.765 C 771.776 1243.783, 779.731 1250.174, 786.125 1255.967 C 814.273 1281.472, 813.830 1281.117, 820.437 1283.513 C 827.935 1286.233, 828.919 1286.735, 835.724 1291.314 C 838.581 1293.237, 843.848 1295.785, 847.429 1296.976 C 851.010 1298.168, 857.216 1301.286, 861.220 1303.905 C 865.224 1306.525, 871.875 1309.833, 876 1311.258 C 880.125 1312.683, 887.550 1315.416, 892.500 1317.332 C 897.450 1319.248, 907.605 1322.180, 915.068 1323.848 C 922.530 1325.515, 931.755 1328.068, 935.568 1329.520 C 944.222 1332.817, 968.512 1334.911, 1001.500 1335.204 C 1024.757 1335.411, 1031.567 1334.691, 1055.500 1329.496 C 1061.550 1328.183, 1074.870 1325.739, 1085.101 1324.066 C 1104.666 1320.865, 1107.771 1319.932, 1114.916 1315.112 C 1119.645 1311.921, 1127.958 1309.446, 1137.246 1308.465 C 1142.016 1307.960, 1143.885 1307.143, 1148.246 1303.657 C 1151.136 1301.348, 1155.525 1298.160, 1158 1296.573 C 1160.475 1294.986, 1164.975 1291.760, 1168 1289.404 C 1171.025 1287.048, 1177.325 1283.288, 1182 1281.047 C 1190.645 1276.903, 1206.496 1266.147, 1215.964 1258 C 1228.028 1247.619, 1253.336 1222.129, 1256.176 1217.500 C 1257.863 1214.750, 1261.143 1210.250, 1263.466 1207.500 C 1265.789 1204.750, 1268.950 1200.475, 1270.491 1198 C 1272.032 1195.525, 1274.634 1191.956, 1276.274 1190.070 C 1277.914 1188.183, 1280.837 1184.133, 1282.769 1181.070 C 1284.702 1178.006, 1288.210 1173.700, 1290.566 1171.500 C 1293.910 1168.376, 1295.333 1165.967, 1297.063 1160.500 C 1298.281 1156.650, 1301.637 1148.775, 1304.520 1143 C 1307.404 1137.225, 1310.970 1128.814, 1312.444 1124.309 C 1313.919 1119.804, 1316.504 1114.404, 1318.190 1112.309 C 1322.732 1106.666, 1323.836 1103.298, 1324.929 1091.768 C 1326.024 1080.207, 1327.090 1074.752, 1329.919 1066.227 C 1330.964 1063.077, 1332.103 1057.416, 1332.448 1053.646 C 1332.794 1049.876, 1333.771 1043.801, 1334.619 1040.146 C 1335.903 1034.612, 1336.098 1027.227, 1335.784 996 C 1335.541 971.903, 1335.015 957.597, 1334.312 955.973 C 1332.652 952.134, 1318.480 938.741, 1313.899 936.680 C 1311.492 935.598, 1306.257 934.628, 1300.971 934.285 L 1292.089 933.710 1283.531 942.326 C 1278.824 947.065, 1274.574 951.990, 1274.087 953.270 C 1272.565 957.274, 1272.038 967.370, 1271.440 1003.981 C 1270.832 1041.246, 1270.472 1045.247, 1266.944 1054.052 C 1265.743 1057.048, 1264.402 1062.918, 1263.964 1067.096 C 1262.901 1077.223, 1258.393 1091.271, 1252.281 1103.500 C 1249.533 1109, 1246.257 1116.616, 1245.003 1120.423 C 1243.517 1124.932, 1241.415 1128.769, 1238.974 1131.423 C 1236.914 1133.666, 1233.782 1137.975, 1232.015 1141 C 1230.249 1144.025, 1227.088 1148.750, 1224.991 1151.500 C 1222.895 1154.250, 1219.226 1159.299, 1216.840 1162.719 C 1204.594 1180.269, 1199.671 1186.118, 1186.958 1198.218 C 1171.857 1212.590, 1158.744 1222.213, 1144 1229.740 C 1138.775 1232.407, 1132.471 1236.144, 1129.990 1238.045 C 1127.510 1239.945, 1123.460 1242.334, 1120.990 1243.353 C 1118.521 1244.373, 1111.325 1247.619, 1105 1250.567 C 1098.675 1253.516, 1089.900 1256.828, 1085.500 1257.927 C 1081.100 1259.026, 1074.800 1260.880, 1071.500 1262.045 C 1051.933 1268.956, 1038.327 1270.538, 1000 1270.354 C 983.225 1270.273, 964.701 1269.754, 958.836 1269.201 C 949.487 1268.318, 947.387 1267.755, 941.816 1264.640 C 936.992 1261.942, 933.057 1260.689, 925.481 1259.439 C 906.865 1256.367, 905.221 1255.908, 898.645 1251.942 C 895.033 1249.763, 888.682 1246.673, 884.530 1245.075 C 880.379 1243.476, 874.174 1240.413, 870.741 1238.268 C 867.309 1236.122, 861.987 1233.362, 858.915 1232.134 C 852.872 1229.719, 840.218 1219.879, 824.315 1205.231 C 818.917 1200.258, 811.973 1194.146, 808.884 1191.649 C 805.795 1189.151, 800.928 1184.131, 798.069 1180.493 C 795.210 1176.855, 790.762 1171.501, 788.185 1168.595 C 777.269 1156.285, 771.617 1148.912, 768.038 1142.316 C 765.944 1138.459, 762.856 1133.404, 761.175 1131.083 C 759.494 1128.763, 756.940 1123.324, 755.499 1118.996 C 754.035 1114.602, 751.364 1109.223, 749.448 1106.814 C 745.112 1101.362, 743.513 1096.387, 741.470 1082 C 740.306 1073.807, 739.149 1069.350, 737.446 1066.500 C 730.998 1055.712, 730.297 1050.668, 729.391 1008.500 C 728.889 985.117, 729.089 976.498, 730.422 964 C 732.478 944.723, 735.125 931.510, 739.078 920.788 C 740.759 916.229, 743.021 908.697, 744.105 904.049 C 745.189 899.401, 747.366 893.500, 748.944 890.936 C 750.522 888.372, 753.358 882.950, 755.247 878.887 C 757.136 874.824, 760.394 869.475, 762.488 867 C 764.582 864.525, 767.550 859.860, 769.083 856.633 C 771.607 851.320, 774 847.721, 786.293 830.740 C 791.878 823.025, 813.996 799.953, 819.094 796.525 C 821.517 794.895, 825.525 791.932, 828 789.941 C 830.475 787.951, 835.875 784.048, 840 781.269 C 844.125 778.490, 848.850 774.769, 850.500 773 C 852.150 771.230, 856.425 768.340, 860 766.578 C 863.575 764.816, 868.300 762.252, 870.500 760.881 C 874.471 758.405, 885.531 753, 886.626 753 C 887.880 753, 894.740 749.471, 898.775 746.752 C 901.686 744.789, 907.429 742.772, 916.775 740.431 C 924.324 738.539, 932.525 736.131, 935 735.079 C 944.427 731.072, 955.051 729.937, 992 728.989 C 1036.353 727.851, 1045.527 727.299, 1048.853 725.566 C 1052.236 723.804, 1062.137 711.860, 1063.674 707.688 C 1064.906 704.343, 1065.397 688.082, 1064.381 684.292 C 1063.714 681.804, 1047.470 667.576, 1043.246 665.780 C 1039.938 664.373, 966.822 663.705, 957.500 664.997 M 1201.239 665.017 C 1196.382 665.725, 1190.540 668.619, 1177.852 676.599 C 1168.968 682.187, 1091.214 759.565, 1079.475 774.500 C 1071.555 784.576, 1070.845 786.987, 1069.924 806.944 C 1069.478 816.600, 1069.073 835.075, 1069.024 848 C 1068.914 876.938, 1068.147 883.706, 1064.343 889.319 C 1060.159 895.491, 1028.469 926.641, 1023.279 929.683 C 1019.394 931.959, 1017.085 932.422, 1005.654 933.216 C 981.448 934.897, 983.011 934.515, 972.785 941.256 C 967.678 944.622, 959.859 951.004, 955.409 955.438 C 948.512 962.310, 946.621 964.976, 942.592 973.500 C 937.072 985.180, 935 992.348, 935 999.769 C 935 1008.114, 936.958 1019.248, 938.910 1022 C 939.885 1023.375, 943.242 1028.638, 946.368 1033.695 C 952.663 1043.876, 957.700 1048.767, 965.878 1052.636 C 968.877 1054.054, 973.528 1056.951, 976.212 1059.073 C 978.897 1061.196, 982.760 1063.395, 984.797 1063.960 C 989.608 1065.297, 1002.788 1065.283, 1012.678 1063.931 C 1019.838 1062.952, 1021.304 1062.324, 1030 1056.519 C 1044.443 1046.877, 1052.185 1038.157, 1059.877 1022.869 L 1066.233 1010.237 1066.989 996.369 C 1067.481 987.327, 1068.313 981.148, 1069.377 978.616 C 1071.138 974.427, 1102.018 942.433, 1110.003 936.524 C 1112.987 934.317, 1116.528 932.810, 1120.503 932.059 C 1123.850 931.426, 1142.184 930.695, 1162 930.404 C 1181.525 930.117, 1200.517 929.422, 1204.204 928.859 C 1209.800 928.004, 1212.937 926.624, 1223.204 920.499 C 1233.711 914.230, 1237.195 911.441, 1247.148 901.331 C 1253.555 894.824, 1260.530 887.908, 1262.648 885.963 C 1264.767 884.017, 1273.700 875.094, 1282.500 866.132 C 1291.300 857.171, 1303.225 845.263, 1309 839.670 C 1319.785 829.225, 1332.234 813.987, 1334.642 808.282 C 1336.295 804.365, 1336.424 791.146, 1334.859 785.922 C 1332.515 778.100, 1326.618 773.244, 1314.048 768.785 C 1309.248 767.083, 1304.489 766.711, 1278.761 766.031 C 1246.460 765.177, 1247.731 765.417, 1241.178 758.917 C 1235.228 753.015, 1235.082 752.299, 1233.979 723.430 C 1232.627 688.073, 1231.672 681.788, 1226.770 676 C 1223.990 672.717, 1215.582 666.618, 1212.143 665.389 C 1208.090 663.941, 1208.513 663.956, 1201.239 665.017 M 1160.525 789.457 C 1154.254 791.551, 1152.805 792.581, 1146.185 799.643 C 1134.508 812.099, 1134.621 811.748, 1134.183 837.048 L 1133.810 858.596 1138.029 862.407 L 1142.248 866.219 1163.374 865.765 C 1187.957 865.237, 1188.056 865.209, 1198.860 855.695 C 1207.685 847.924, 1209.409 845.483, 1212.054 837.016 C 1214.527 829.100, 1214.096 828.580, 1204.247 827.612 C 1199.751 827.170, 1194.762 825.727, 1189.292 823.286 C 1181.579 819.843, 1180.960 819.335, 1179.029 814.847 C 1177.899 812.220, 1175.831 805.228, 1174.432 799.310 C 1172.050 789.228, 1170.951 786.961, 1168.500 787.079 C 1167.950 787.105, 1164.361 788.175, 1160.525 789.457 M 971.754 800.085 C 968.594 800.548, 960.736 803.012, 954.291 805.561 C 945.359 809.094, 940.545 810.390, 934.037 811.011 C 923.779 811.991, 922.051 812.609, 913.817 818.246 C 910.303 820.652, 905.266 823.225, 902.624 823.965 C 899.242 824.912, 895.810 827.115, 891.034 831.405 C 884.008 837.716, 868.992 848.934, 860.805 853.988 C 858.223 855.582, 855.359 858.374, 854.440 860.193 C 853.521 862.012, 849.747 867.550, 846.053 872.501 C 842.360 877.451, 838.808 882.490, 838.162 883.698 C 837.515 884.906, 835.172 887.990, 832.955 890.552 C 830.738 893.114, 827.368 898.358, 825.467 902.205 C 823.565 906.052, 820.719 910.843, 819.142 912.850 C 814.817 918.355, 813.356 921.735, 810.598 932.614 C 809.212 938.081, 806.965 945.513, 805.604 949.128 C 798.362 968.369, 796.919 1019.735, 803.136 1037 C 808.380 1051.564, 810.055 1057.676, 810.942 1065.483 C 812.063 1075.350, 812.761 1076.960, 818.528 1083 C 821.707 1086.329, 823.360 1089.259, 824.884 1094.262 C 826.016 1097.981, 827.444 1101.962, 828.058 1103.108 C 831.789 1110.080, 845.319 1125.409, 865.475 1145.500 C 888.716 1168.667, 891.370 1170.759, 902.500 1174.684 C 905.250 1175.654, 910.410 1178.436, 913.966 1180.865 C 922.345 1186.589, 924.911 1187.603, 934.348 1188.916 C 938.745 1189.527, 945.234 1191.347, 949.157 1193.069 C 960.525 1198.058, 967.277 1199.089, 992.500 1199.684 C 1021.779 1200.376, 1032.466 1199.335, 1044.640 1194.606 C 1049.667 1192.653, 1058.442 1189.946, 1064.140 1188.590 C 1077.529 1185.404, 1082.049 1183.750, 1087.367 1180.092 C 1089.756 1178.447, 1094.266 1175.972, 1097.389 1174.592 C 1100.511 1173.211, 1105.639 1170.119, 1108.783 1167.720 C 1120.109 1159.081, 1128.643 1152.906, 1136.605 1147.588 C 1143.027 1143.299, 1145.336 1141.067, 1147.724 1136.838 C 1149.381 1133.902, 1152.415 1129.493, 1154.465 1127.040 C 1156.516 1124.587, 1159.573 1120.537, 1161.258 1118.040 C 1162.944 1115.543, 1166.666 1111.009, 1169.529 1107.964 C 1173.352 1103.897, 1175.161 1100.957, 1176.344 1096.887 C 1177.230 1093.840, 1179.473 1089.356, 1181.327 1086.923 C 1186.568 1080.048, 1188.089 1076.394, 1189.576 1067.109 C 1190.442 1061.700, 1192.262 1055.700, 1194.471 1050.969 C 1198.825 1041.644, 1201.102 1027.393, 1201.337 1008 C 1201.530 992.028, 1200.126 986.697, 1193.847 979.564 C 1184.902 969.401, 1175.863 967.118, 1162.032 971.526 C 1154.398 973.959, 1152.987 974.823, 1147.710 980.301 C 1140.218 988.078, 1139.158 990.243, 1137.940 1000.256 C 1136.717 1010.306, 1130.643 1039.973, 1128.665 1045.553 C 1126.393 1051.961, 1121.322 1061.564, 1113.642 1074 C 1104.669 1088.531, 1090.746 1103.021, 1081.200 1107.761 C 1077.736 1109.482, 1072.505 1113.052, 1069.576 1115.695 C 1063.222 1121.429, 1051.876 1126.395, 1034.392 1131.095 C 1023.596 1133.997, 1020.809 1134.335, 1004.155 1134.758 C 978.956 1135.397, 970.351 1134.189, 952.048 1127.442 C 938.173 1122.327, 937.269 1121.824, 932.500 1116.563 C 929.084 1112.794, 925.599 1110.197, 921.500 1108.364 C 912.135 1104.178, 907.362 1100.429, 902.843 1093.708 C 900.547 1090.294, 897.396 1086.025, 895.840 1084.222 C 894.285 1082.419, 892.084 1079.126, 890.951 1076.903 C 889.817 1074.680, 886.465 1070.225, 883.502 1067.002 C 879.893 1063.077, 877.749 1059.717, 877.004 1056.822 C 874.397 1046.691, 872.664 1041.161, 870.427 1035.836 C 867.318 1028.436, 866.131 1022.918, 864.935 1010.301 C 863.831 998.646, 864.583 990.358, 868.635 969.500 C 871.754 953.446, 875.439 944.397, 883.425 933.181 C 886.825 928.406, 890.885 921.800, 892.449 918.500 C 896.509 909.931, 911.347 895.411, 920.643 890.912 C 924.414 889.086, 929.975 885.704, 933 883.396 C 946.798 872.866, 964.718 866.874, 993.705 863.095 C 1009.280 861.064, 1012.404 859.811, 1021.190 852.068 C 1026.165 847.684, 1029.225 841.388, 1030.477 832.961 C 1031.537 825.823, 1027.051 812.998, 1021.581 807.528 C 1014.683 800.630, 1008.804 798.975, 991.712 799.122 C 983.896 799.189, 974.915 799.623, 971.754 800.085" stroke="none" fill="#000000" fill-rule="evenodd"/></g></svg>